<svg width="48" height="48" viewBox="0 0 48 48" fill="none" xmlns="http://www.w3.org/2000/svg">
<path d="M24.0117 45.2626C23.5787 45.2626 23.2236 44.9076 23.2236 44.4745V31.2056C23.2236 30.7726 23.5787 30.4175 24.0117 30.4175C24.4448 30.4175 24.8 30.7726 24.8 31.2056V44.4745C24.7914 44.9076 24.4448 45.2626 24.0117 45.2626Z" fill="white"/>
<path d="M26.7496 47.9999C25.6409 47.9999 24.6536 47.4889 24.0041 46.6921C23.3545 47.4889 22.367 47.9999 21.2583 47.9999C19.3096 47.9999 17.7332 46.4149 17.7332 44.4661V29.5863C17.3954 29.7769 17.0232 29.8895 16.6248 29.9328C15.7933 30.0107 14.953 29.7336 14.3381 29.1706C13.7232 28.6076 13.3682 27.8108 13.3682 26.9793V15.4687C13.3682 12.6278 15.6806 10.324 18.5128 10.324H29.4864C32.3273 10.324 34.6311 12.6365 34.6311 15.4687V26.9793C34.6311 27.8108 34.2761 28.6163 33.6611 29.1792C33.0462 29.7422 32.2059 30.0194 31.3745 29.9328C30.9761 29.8981 30.6038 29.7769 30.266 29.5863V44.4661C30.2834 46.4236 28.6983 47.9999 26.7496 47.9999ZM24.0125 43.6867C24.4456 43.6867 24.8008 44.0418 24.8008 44.4748C24.8008 45.5575 25.6756 46.4322 26.7582 46.4322C27.8409 46.4322 28.7157 45.5575 28.7157 44.4748V26.9014C28.7157 26.4683 29.0707 26.1132 29.5037 26.1132C29.9368 26.1132 30.2918 26.4597 30.2918 26.9014C30.2918 27.6635 30.8463 28.3131 31.5479 28.3738C31.9463 28.4171 32.3274 28.2872 32.6218 28.0187C32.9163 27.7502 33.0809 27.3777 33.0809 26.988V15.4773C33.0809 13.5026 31.4785 11.9003 29.5037 11.9003H18.5302C16.5554 11.9003 14.953 13.5026 14.953 15.4773V26.988C14.953 27.3777 15.1176 27.7588 15.4121 28.0187C15.7066 28.2872 16.0876 28.4171 16.486 28.3738C17.1876 28.3045 17.7419 27.6549 17.7419 26.8927C17.7419 26.4597 18.0971 26.1046 18.5302 26.1046C18.9632 26.1046 19.3183 26.4597 19.3183 26.8927V44.4748C19.3183 45.5575 20.193 46.4322 21.2757 46.4322C22.3583 46.4322 23.2331 45.5575 23.2331 44.4748C23.2244 44.0418 23.5708 43.6867 24.0125 43.6867Z" fill="white"/>
<path d="M29.4953 11.9091H18.5217C18.0886 11.9091 17.7334 11.554 17.7334 11.1209C17.7334 10.6879 18.0886 10.3328 18.5217 10.3328H29.4953C29.9283 10.3328 30.2836 10.6879 30.2836 11.1209C30.2836 11.554 29.9283 11.9091 29.4953 11.9091Z" fill="white"/>
<path d="M18.5217 27.6808C18.0886 27.6808 17.7334 27.3258 17.7334 26.8927V18.9937C17.7334 18.5607 18.0886 18.2056 18.5217 18.2056C18.9548 18.2056 19.3098 18.5607 19.3098 18.9937V26.8927C19.3098 27.3258 18.9548 27.6808 18.5217 27.6808Z" fill="white"/>
<path d="M29.4961 27.6808C29.063 27.6808 28.708 27.3258 28.708 26.8927V18.9937C28.708 18.5607 29.063 18.2056 29.4961 18.2056C29.9292 18.2056 30.2844 18.5607 30.2844 18.9937V26.8927C30.2757 27.3258 29.9292 27.6808 29.4961 27.6808Z" fill="white"/>
<path d="M24.0125 8.93829C21.5441 8.93829 19.5435 6.92891 19.5435 4.46915C19.5435 2.00072 21.5528 0 24.0125 0C26.4723 0 28.4818 2.00939 28.4818 4.46915C28.4818 6.93757 26.4723 8.93829 24.0125 8.93829ZM24.0125 1.57633C22.4189 1.57633 21.1198 2.8755 21.1198 4.46915C21.1198 6.06279 22.4189 7.36196 24.0125 7.36196C25.6062 7.36196 26.9054 6.06279 26.9054 4.46915C26.9054 2.8755 25.6062 1.57633 24.0125 1.57633Z" fill="white"/>
</svg>
