<svg width="48" height="48" viewBox="0 0 48 48" fill="none" xmlns="http://www.w3.org/2000/svg">
<g id="HeroIcons">
<g id="smartphone_1_">
<path id="XMLID_34_ (Stroke)" fillRule="evenodd" clipRule="evenodd" d="M11.0685 4.01637C11.0685 1.79234 12.8608 0 15.0849 0H32.9152C35.1392 0 36.9316 1.79234 36.9316 4.01637V6.89417C36.9316 7.36736 36.548 7.75097 36.0748 7.75097H11.9253C11.4521 7.75097 11.0685 7.36736 11.0685 6.89417V4.01637ZM15.0849 1.7136C13.8072 1.7136 12.7821 2.73873 12.7821 4.01637V6.03737H35.218V4.01637C35.218 2.73873 34.1928 1.7136 32.9152 1.7136H15.0849Z" fill="white"/>
<path id="XMLID_33_ (Stroke)" fillRule="evenodd" clipRule="evenodd" d="M11.0685 39.0934C11.0685 38.6202 11.4521 38.2366 11.9253 38.2366H36.0748C36.548 38.2366 36.9316 38.6202 36.9316 39.0934V43.9836C36.9316 46.2077 35.1392 48 32.9152 48H15.2056C12.9212 48 11.0685 46.1473 11.0685 43.8629V39.0934ZM12.7821 39.9502V43.8629C12.7821 45.2009 13.8676 46.2864 15.2056 46.2864H32.9152C34.1928 46.2864 35.218 45.2613 35.218 43.9836V39.9502H12.7821Z" fill="white"/>
<path id="Vector (Stroke)" fillRule="evenodd" clipRule="evenodd" d="M11.0685 6.89415C11.0685 6.42095 11.4521 6.03735 11.9253 6.03735H36.0748C36.548 6.03735 36.9316 6.42095 36.9316 6.89415V39.0935C36.9316 39.5667 36.548 39.9503 36.0748 39.9503H11.9253C11.4521 39.9503 11.0685 39.5667 11.0685 39.0935V6.89415ZM12.7821 7.75095V38.2367H35.218V7.75095H12.7821Z" fill="white"/>
</g>
</g>
</svg>
