<svg width="48" height="48" viewBox="0 0 48 48" fill="none" xmlns="http://www.w3.org/2000/svg">
<g clip-path="url(#clip0_812_461101)">
<path fillRule="evenodd" clipRule="evenodd" d="M4.03353 18.8274C4.09383 18.4053 4.45533 18.0918 4.88172 18.0918H6.89417C7.36736 18.0918 7.75096 18.4754 7.75096 18.9486C7.75096 19.4218 7.36736 19.8054 6.89417 19.8054H5.62481L1.93626 45.6253L12.5484 40.3192C12.7772 40.2048 13.0451 40.1986 13.279 40.3024L24 45.0586L34.721 40.3024C34.9549 40.1986 35.2228 40.2048 35.4517 40.3192L46.0637 45.6253L42.3752 19.8054H41.1058C40.6326 19.8054 40.249 19.4218 40.249 18.9486C40.249 18.4754 40.6326 18.0918 41.1058 18.0918H43.1183C43.5447 18.0918 43.9062 18.4053 43.9665 18.8274L47.9914 47.0017C48.0364 47.3172 47.9027 47.6316 47.6442 47.818C47.3856 48.0043 47.0451 48.0318 46.76 47.8892L35.0467 42.0326L24.3475 46.7791C24.1262 46.8773 23.8738 46.8773 23.6526 46.7791L12.9534 42.0326L1.23999 47.8892C0.954949 48.0318 0.614365 48.0043 0.355837 47.818C0.0973105 47.6316 -0.0364378 47.3172 0.00863049 47.0017L4.03353 18.8274Z" fill="white"/>
<path fillRule="evenodd" clipRule="evenodd" d="M24.0006 1.73385C16.8869 1.73385 11.1124 7.50838 11.1124 14.6221L11.1124 14.6239C11.1078 16.9314 11.906 19.5252 13.1677 22.1622C14.4244 24.789 16.1105 27.3963 17.8114 29.7143C19.5103 32.0297 21.2119 34.0401 22.4895 35.4721C23.1104 36.1681 23.6301 36.7263 23.9994 37.1153C24.3682 36.7252 24.8875 36.1654 25.508 35.4675C26.7841 34.0322 28.484 32.0179 30.1819 29.6998C31.8817 27.3791 33.5674 24.7701 34.8253 22.1448C36.0882 19.509 36.8888 16.9199 36.8888 14.6221C36.8888 7.50838 31.1144 1.73385 24.0006 1.73385ZM24.0006 38.3489C23.3948 38.9548 23.3946 38.9546 23.3944 38.9544L23.3937 38.9537L23.3914 38.9514L23.3831 38.943L23.3518 38.9115C23.3245 38.8839 23.2847 38.8434 23.233 38.7905C23.1297 38.6847 22.9792 38.5292 22.7883 38.3284C22.4064 37.9268 21.8626 37.3435 21.2108 36.6129C19.9081 35.1526 18.1696 33.0991 16.4298 30.728C14.6919 28.3595 12.9405 25.6578 11.6219 22.9018C10.3084 20.1565 9.39362 17.2943 9.39883 14.6213C9.3993 6.56153 15.9408 0.0202637 24.0006 0.0202637C32.0608 0.0202637 38.6024 6.562 38.6024 14.6221C38.6024 17.2851 37.6849 20.1422 36.3707 22.8852C35.0513 25.6388 33.3008 28.3415 31.5644 30.7123C29.826 33.0857 28.0896 35.1429 26.7886 36.6061C26.1376 37.3383 25.5946 37.9229 25.2133 38.3255C25.0227 38.5268 24.8724 38.6827 24.7693 38.7888C24.7177 38.8418 24.6779 38.8824 24.6507 38.91L24.6195 38.9417L24.6112 38.9501L24.6089 38.9524L24.6082 38.9531C24.608 38.9533 24.6078 38.9535 24.0006 38.3489ZM24.0006 38.3489L24.6078 38.9535L24.002 39.562L23.3948 38.9548L24.0006 38.3489Z" fill="white"/>
<path fillRule="evenodd" clipRule="evenodd" d="M24.0015 8.77756C21.0334 8.77756 18.6197 11.1913 18.6197 14.1594C18.6197 17.1275 21.0334 19.5412 24.0015 19.5412C26.9696 19.5412 29.3833 17.1275 29.3833 14.1594C29.3833 11.1913 26.9696 8.77756 24.0015 8.77756ZM16.9061 14.1594C16.9061 10.2449 20.087 7.06396 24.0015 7.06396C27.916 7.06396 31.0969 10.2449 31.0969 14.1594C31.0969 18.0739 27.916 21.2548 24.0015 21.2548C20.087 21.2548 16.9061 18.0739 16.9061 14.1594Z" fill="white"/>
</g>
<defs>
<clipPath id="clip0_812_461101">
<rect width="48" height="48" fill="white"/>
</clipPath>
</defs>
</svg>
