<svg width="48" height="48" viewBox="0 0 48 48" fill="none" xmlns="http://www.w3.org/2000/svg">
<g id="HeroIcons" clip-path="url(#clip0_812_461117)">
<g id="Group">
<path id="Vector (Stroke)" fillRule="evenodd" clipRule="evenodd" d="M7.90084 17.8132C6.70371 17.8132 5.73897 18.7779 5.73897 19.9751V32.0497C5.73897 33.2468 6.70371 34.2116 7.90084 34.2116C9.09798 34.2116 10.0627 33.2468 10.0627 32.0497V19.9751C10.0627 18.7779 9.09798 17.8132 7.90084 17.8132ZM4.02539 19.9751C4.02539 17.8315 5.75732 16.0996 7.90084 16.0996C10.0444 16.0996 11.7763 17.8315 11.7763 19.9751V32.0497C11.7763 34.1932 10.0444 35.9252 7.90084 35.9252C5.75732 35.9252 4.02539 34.1932 4.02539 32.0497V19.9751Z" fill="white"/>
<path id="Vector (Stroke)_2" fillRule="evenodd" clipRule="evenodd" d="M5.72154 20.9129C5.81513 21.3767 5.51497 21.8286 5.05112 21.9222C3.14967 22.3058 1.71358 23.9928 1.71358 26.0128C1.71358 28.0328 3.14967 29.7198 5.05112 30.1034C5.51497 30.197 5.81513 30.6489 5.72154 31.1128C5.62796 31.5766 5.17607 31.8768 4.71223 31.7832C2.02532 31.2411 0 28.8629 0 26.0128C0 23.1627 2.02532 20.7845 4.71223 20.2424C5.17607 20.1488 5.62796 20.449 5.72154 20.9129Z" fill="white"/>
<path id="Vector (Stroke)_3" fillRule="evenodd" clipRule="evenodd" d="M40.0992 17.8132C38.9021 17.8132 37.9373 18.7779 37.9373 19.9751V32.0497C37.9373 33.2468 38.9021 34.2116 40.0992 34.2116C41.2963 34.2116 42.2611 33.2468 42.2611 32.0497V19.9751C42.2611 18.7779 41.2963 17.8132 40.0992 17.8132ZM36.2238 19.9751C36.2238 17.8315 37.9557 16.0996 40.0992 16.0996C42.2427 16.0996 43.9747 17.8315 43.9747 19.9751V32.0497C43.9747 34.1932 42.2427 35.9252 40.0992 35.9252C37.9557 35.9252 36.2238 34.1932 36.2238 32.0497V19.9751Z" fill="white"/>
<path id="Vector (Stroke)_4" fillRule="evenodd" clipRule="evenodd" d="M42.2784 20.9129C42.372 20.449 42.8239 20.1488 43.2878 20.2424C45.9747 20.7845 48 23.1627 48 26.0128C48 28.8629 45.9747 31.2411 43.2878 31.7832C42.8239 31.8768 42.372 31.5766 42.2784 31.1128C42.1849 30.6489 42.485 30.197 42.9489 30.1034C44.8503 29.7198 46.2864 28.0328 46.2864 26.0128C46.2864 23.9928 44.8503 22.3058 42.9489 21.9222C42.485 21.8286 42.1849 21.3767 42.2784 20.9129Z" fill="white"/>
<path id="Vector (Stroke)_5" fillRule="evenodd" clipRule="evenodd" d="M18.9692 43.9751C18.3356 43.9751 17.8136 44.4971 17.8136 45.1307C17.8136 45.7644 18.3356 46.2864 18.9692 46.2864H25.0065C25.6402 46.2864 26.1622 45.7644 26.1622 45.1307C26.1622 44.4971 25.6402 43.9751 25.0065 43.9751H18.9692ZM16.1 45.1307C16.1 43.5507 17.3892 42.2615 18.9692 42.2615H25.0065C26.5866 42.2615 27.8758 43.5507 27.8758 45.1307C27.8758 46.7107 26.5866 47.9999 25.0065 47.9999H18.9692C17.3892 47.9999 16.1 46.7107 16.1 45.1307Z" fill="white"/>
<path id="Vector (Stroke)_6" fillRule="evenodd" clipRule="evenodd" d="M41.1058 34.2114C41.5789 34.2114 41.9625 34.595 41.9625 35.0682C41.9625 39.2277 40.9166 42.0937 38.3108 43.8309C35.8106 45.4977 32.0471 45.9872 27.0187 45.9872C26.5455 45.9872 26.1619 45.6036 26.1619 45.1304C26.1619 44.6572 26.5455 44.2736 27.0187 44.2736C32.0524 44.2736 35.3325 43.7569 37.3603 42.4051C39.2825 41.1236 40.249 38.9585 40.249 35.0682C40.249 34.595 40.6326 34.2114 41.1058 34.2114Z" fill="white"/>
<path id="Vector (Stroke)_7" fillRule="evenodd" clipRule="evenodd" d="M24.0002 1.71383C16.1418 1.71383 9.76363 8.09203 9.76363 15.9503V16.9566C9.76363 17.4298 9.38003 17.8134 8.90684 17.8134C8.43365 17.8134 8.05005 17.4298 8.05005 16.9566V15.9503C8.05005 7.14565 15.1955 0.000244141 24.0002 0.000244141C32.8049 0.000244141 39.9503 7.14565 39.9503 15.9503V16.9566C39.9503 17.4298 39.5667 17.8134 39.0935 17.8134C38.6203 17.8134 38.2367 17.4298 38.2367 16.9566V15.9503C38.2367 8.09203 31.8585 1.71383 24.0002 1.71383Z" fill="white"/>
</g>
</g>
<defs>
<clipPath id="clip0_812_461117">
<rect width="48" height="48" fill="white"/>
</clipPath>
</defs>
</svg>
